<?xml version="1.0" encoding="utf-8"?>
<!-- Generator: Adobe Illustrator 26.0.1, SVG Export Plug-In . SVG Version: 6.00 Build 0)  -->
<svg version="1.1" id="Layer_1" xmlns="http://www.w3.org/2000/svg" xmlns:xlink="http://www.w3.org/1999/xlink" x="0px" y="0px"
	 viewBox="0 0 354.7 103.6" style="enable-background:new 0 0 354.7 103.6;" xml:space="preserve">
<style type="text/css">
	.st0{fill:#343F49;}
	.st1{fill:#2EB7E6;}
</style>
<g>
	<path class="st0" d="M136.7,20.5c-2.6,0-5,1-5,1.5v57.8c0,4.9,2.5,6.3,6,6.3h1.4c3.4,0,5.8-1.5,5.8-6.3V31.1
		C144.9,22.6,140.6,20.5,136.7,20.5"/>
	<path class="st0" d="M227.5,75.6c-6.4,0-11.4-4.5-11.4-11v-8.4c2-4.6,6-7.5,11.5-7.5c6.9,0,11.7,5.4,11.7,13.5
		C239.3,70.2,234.6,75.6,227.5,75.6 M230.8,38.1c-6.5,0-11.6,2.9-14.8,7.5V31.1c0-8.5-4.3-10.6-8.2-10.6c-2.6,0-5,1-5,1.5v57.7
		c0,4.9,2.4,6.3,6,6.3h1.4c3.4,0,5.8-1.5,5.8-6.3v-1.5c2.4,4.4,7.7,7.9,14.6,7.9c12.7,0,21.4-9.8,21.4-24.1
		C252,47.4,243.2,38.1,230.8,38.1"/>
	<path class="st0" d="M125,20.6H89.2c0,0,0,0-0.1,0h-2c-0.1,0-0.1,0-0.1,0h-1.4c-3.4,0-5.9,1.6-5.9,6.4v52.9c0,4.9,2.5,6.3,6,6.3
		h1.4c3.4,0,5.8-1.5,5.8-6.3V61.3h10.8c0.1,0,0.2,0,0.3,0h0c8.5,0,10.6-3.5,10.6-7.4c0-2.6-1.1-3.8-1.5-3.8h-8.5c-0.3,0-0.5,0-0.8,0
		H92.9V33.9h22.9c8.5,0,10.6-4.3,10.6-8.2C126.4,23.1,125.4,20.6,125,20.6"/>
	<path class="st0" d="M337.6,57.1c-6.2-1.3-9.8-1.9-9.8-5.2c0-2.9,2.8-4.5,7.8-4.5c5.4,0,10.3,2.5,13.4,6.1c0.2,0.3,4.2-2.2,4.2-5.6
		c0-5.2-6.1-9.8-18.5-9.8c-11.6,0-19.1,5.9-19.1,14.8c0,10.4,9.9,12.5,16.1,13.9c6.2,1.3,9.9,1.9,9.9,5.3c0,2.9-2.9,4.4-8.1,4.4
		c-6.8,0-11-2.7-14.1-6.1c-0.3-0.3-4,2.1-4,5.4c0,5.3,5.5,9.9,18.9,9.9c12.6,0,20.2-5.6,20.2-14.8C354.5,60.7,344,58.5,337.6,57.1"
		/>
	<path class="st0" d="M262.3,38.2c-2.6,0-5,1-5,1.5v40.1c0,4.9,2.5,6.4,6,6.4h1.4c3.4,0,5.8-1.5,5.8-6.4V48.9
		C270.6,40.3,266.3,38.2,262.3,38.2z"/>
	<path class="st0" d="M270.7,27.3c0,5.5-6.4,9.6-12.2,5.1c-4.4-5.8-0.4-12.2,5.1-12.2C267.6,20.3,270.7,23.5,270.7,27.3"/>
	<path class="st0" d="M307.3,72.6c-1.4,1.8-3.2,3.1-5.9,3.1c-3.6,0-5.1-2.2-5.1-6.8V48.4h8.1c3.9,0,5.5-1.7,5.5-4.9v-0.8
		c0-3.1-1.6-4.7-5.3-4.7h-8.3v-1.4c0-8.5-3.6-10.6-7.9-10.6c-2.6,0-4.8,1-4.8,1.5v4.6c0,0.1,0,0.2,0,0.3v5.7h-2.2
		c-3.8,0-5.5,1.7-5.5,4.9v0.8c0,3,1.8,4.6,5.5,4.6h2.2v22.1c0,10.3,4.7,15.7,14.8,15.7c7.5,0,12.1-3.8,12.1-8.3
		C310.5,74.1,307.4,72.3,307.3,72.6"/>
	<path class="st0" d="M190.9,38.2c-2.9,0-5.7,1.5-7.3,6.7l-8.8,26.1l-9.9-26.2c-1.7-5.2-4.3-6.6-7.4-6.6c-4,0-7.5,3.1-7.2,3.8
		l15.5,33.7l3.2,6.9l-6.2,16.6c-0.4,0.7,3.2,3.7,7,3.7c2.9,0,5.5-1.5,7.5-6.5L198,41.8C198.3,41.2,194.6,38.2,190.9,38.2"/>
	<g>
		<path class="st1" d="M55.9,25.7C50.7,14.1,37.2,8.9,25.7,14.1C14.1,19.2,8.9,32.7,14.1,44.3C19.2,55.8,32.7,61,44.3,55.9
			C55.8,50.7,61,37.2,55.9,25.7z M41.2,48.9c-7.7,3.4-16.7,0-20.1-7.7c-3.4-7.7,0-16.7,7.7-20.1c7.7-3.4,16.7,0,20.1,7.7
			C52.3,36.5,48.9,45.5,41.2,48.9z"/>
		<circle class="st0" cx="35" cy="35" r="6.1"/>
		<path class="st0" d="M10.3,20.4c-1.8,0.2-9.8,1.4-10.3,3c-0.5,1.6,5.1,7.2,6.5,8.5C6.9,27.8,8.3,23.9,10.3,20.4z"/>
		<path class="st0" d="M20.4,59.6c0.2,1.8,1.4,9.8,3,10.3c1.6,0.5,7.2-5.1,8.5-6.5C27.8,63,23.9,61.6,20.4,59.6z"/>
		<path class="st0" d="M63.4,38c-0.4,4.2-1.8,8.1-3.8,11.5c1.8-0.2,9.8-1.3,10.3-3C70.4,44.9,64.8,39.3,63.4,38z"/>
		<path class="st0" d="M49.5,10.3c-0.2-1.8-1.3-9.8-3-10.3c-1.6-0.5-7.2,5.1-8.5,6.5C42.1,6.9,46.1,8.3,49.5,10.3z"/>
	</g>
</g>
</svg>
